<?xml version="1.0" encoding="UTF-8"?>
<!DOCTYPE svg PUBLIC "-//W3C//DTD SVG 1.1//EN" "http://www.w3.org/Graphics/SVG/1.1/DTD/svg11.dtd">
<svg xmlns="http://www.w3.org/2000/svg" version="1.1" width="500px" height="500px" style="shape-rendering:geometricPrecision; text-rendering:geometricPrecision; image-rendering:optimizeQuality; fill-rule:evenodd; clip-rule:evenodd" xmlns:xlink="http://www.w3.org/1999/xlink">
<g><path style="opacity:1" fill="#ff0b05" d="M 232.5,-0.5 C 243.833,-0.5 255.167,-0.5 266.5,-0.5C 351.992,8.14484 417.826,48.4782 464,120.5C 484.211,155.293 496.044,192.627 499.5,232.5C 499.5,243.5 499.5,254.5 499.5,265.5C 489.566,362.905 440.9,433.405 353.5,477C 325.633,489.382 296.633,496.882 266.5,499.5C 255.167,499.5 243.833,499.5 232.5,499.5C 147.008,490.855 81.1743,450.522 35,378.5C 14.7894,343.707 2.95609,306.373 -0.5,266.5C -0.5,255.167 -0.5,243.833 -0.5,232.5C 10.2294,134.841 59.5627,64.3405 147.5,21C 174.798,9.25912 203.131,2.09245 232.5,-0.5 Z"/></g>
<g><path style="opacity:1" fill="#fff9f8" d="M 233.5,18.5 C 313.643,15.8372 379.476,44.8372 431,105.5C 478.881,169.099 492.215,239.433 471,316.5C 450.166,381.664 408.999,429.164 347.5,459C 256.785,496.619 173.451,484.619 97.5,423C 33.865,362.762 9.36503,289.262 24,202.5C 45.5205,114.977 99.0205,56.8107 184.5,28C 200.689,23.3279 217.023,20.1612 233.5,18.5 Z"/></g>
<g><path style="opacity:1" fill="#ff0100" d="M 226.5,32.5 C 303.603,27.3195 367.437,53.6529 418,111.5C 470.663,180.448 480.996,255.448 449,336.5C 413.397,411.74 354.231,454.906 271.5,466C 179.786,471.563 109.619,435.729 61,358.5C 28.2421,297.583 23.5755,234.583 47,169.5C 81.6561,90.9144 141.489,45.2477 226.5,32.5 Z"/></g>
<g><path style="opacity:1" fill="#fffdfc" d="M 198.5,68.5 C 233.167,68.5 267.833,68.5 302.5,68.5C 302.5,111.5 302.5,154.5 302.5,197.5C 345.833,197.5 389.167,197.5 432.5,197.5C 432.5,232.167 432.5,266.833 432.5,301.5C 389.167,301.5 345.833,301.5 302.5,301.5C 302.5,345.833 302.5,390.167 302.5,434.5C 267.833,434.5 233.167,434.5 198.5,434.5C 198.5,390.167 198.5,345.833 198.5,301.5C 154.5,301.5 110.5,301.5 66.5,301.5C 66.5,266.833 66.5,232.167 66.5,197.5C 110.5,197.5 154.5,197.5 198.5,197.5C 198.5,154.5 198.5,111.5 198.5,68.5 Z"/></g>
<g><path style="opacity:1" fill="#ff2222" d="M 242.5,203.5 C 260.274,202.696 277.274,205.862 293.5,213C 310.839,222.024 325.506,234.358 337.5,250C 317.264,274.791 291.264,289.791 259.5,295C 242.461,296.549 226.128,293.882 210.5,287C 191.182,278.16 174.515,265.66 160.5,249.5C 182.984,225.265 210.317,209.931 242.5,203.5 Z"/></g>
<g><path style="opacity:1" fill="#fffaf9" d="M 241.5,211.5 C 266.487,209.561 282.32,220.561 289,244.5C 289.58,266.916 279.08,281.082 257.5,287C 233.949,289.771 218.449,279.938 211,257.5C 208.962,234.043 219.129,218.71 241.5,211.5 Z"/></g>
<g><path style="opacity:1" fill="#ff2221" d="M 244.5,228.5 C 265.721,228.544 274.221,238.877 270,259.5C 261.564,271.535 250.731,274.368 237.5,268C 228.214,259.744 226.047,249.911 231,238.5C 234.802,234.037 239.302,230.703 244.5,228.5 Z"/></g>
</svg>
